PathFileType	4	(X/Y/Z)	Kaydara																																																																																																																									
DataRate	CameraRate	NumFrames	NumMarkers	Units	OrigDataRate	OrigDataStartFrame	OrigNumFrames																																																																																																																					
30	30	8	41	mm	30	400	373																																																																																																																					
Frame#	Time	NABA_LFHD			NABA_RFHD			NABA_LBHD			NABA_RBHD			NABA_LFTShould			NABA_RFTShould			NABA_LRRShould			NABA_RRRShould			NABA_T10			NABA_STRN			NABA_TRUN			NABA_LSHO			NABA_LUPA			NABA_LELB			NABA_LFRM			NABA_LWRA			NABA_LWRB			NABA_LFIN			NABA_RSHO			NABA_RUPA			NABA_RELB			NABA_RFRM			NABA_RWRA			NABA_RWRB			NABA_RFIN			NABA_LFWT			NABA_RFWT			NABA_LBWT			NABA_RBWT			NABA_LTHI			NABA_LKNE			NABA_LSHN			NABA_LANK			NABA_LHEE			NABA_LTOE			NABA_RTHI			NABA_RKNE			NABA_RSHN			NABA_RANK			NABA_RHEE			NABA_RTOE		
		X1	Y1	Z1	X2	Y2	Z2	X3	Y3	Z3	X4	Y4	Z4	X5	Y5	Z5	X6	Y6	Z6	X7	Y7	Z7	X8	Y8	Z8	X9	Y9	Z9	X10	Y10	Z10	X11	Y11	Z11	X12	Y12	Z12	X13	Y13	Z13	X14	Y14	Z14	X15	Y15	Z15	X16	Y16	Z16	X17	Y17	Z17	X18	Y18	Z18	X19	Y19	Z19	X20	Y20	Z20	X21	Y21	Z21	X22	Y22	Z22	X23	Y23	Z23	X24	Y24	Z24	X25	Y25	Z25	X26	Y26	Z26	X27	Y27	Z27	X28	Y28	Z28	X29	Y29	Z29	X30	Y30	Z30	X31	Y31	Z31	X32	Y32	Z32	X33	Y33	Z33	X34	Y34	Z34	X35	Y35	Z35	X36	Y36	Z36	X37	Y37	Z37	X38	Y38	Z38	X39	Y39	Z39	X40	Y40	Z40	X41	Y41	Z41
																																																																																																																												
327	13.297	366.43764	1405.56305	1353.53271	196.90762	1376.11298	1360.03342	377.45823	1488.24127	1258.55858	161.49588	1444.1864	1292.59247	341.2447	1267.9081	1172.62306	213.97655	1262.59743	1175.87891	340.79178	1347.84454	1072.52464	195.14479	1341.84311	1083.21609	273.2827	1200.12222	969.50325	282.4514	1204.46259	1212.96074	284.74165	1100.4763	1243.83797	433.40172	1302.13272	1131.31058	496.86005	1080.67719	1081.40602	500.22545	977.53502	1100.0528	492.23289	900.25864	1073.29346	430.4105	748.65143	1136.26289	502.77325	748.34206	1138.76091	479.14333	688.23639	1176.85928	127.85625	1297.04193	1148.39012	65.25867	1104.15855	1063.10173	42.91143	970.3685	1104.30717	39.48738	875.57259	1108.1118	109.87443	748.74077	1178.9473	35.61397	737.23267	1180.58731	51.61865	699.08745	1208.9077	405.22346	904.21021	1154.02153	139.85786	906.13777	1162.36961	349.44851	965.53604	984.3412	179.79551	977.54059	984.14902	391.12228	613.84468	993.76259	382.94456	459.48273	1034.62624	317.08628	263.27181	1021.90163	336.51062	128.02901	923.9476	277.04327	94.09792	856.2162	306.50408	46.33449	1030.43556	123.7532	610.85415	1088.64555	145.3076	490.50854	1244.13483	149.78426	320.57495	1279.65309	135.30202	118.00159	1280.71869	177.64072	51.91214	1231.21674	163.80779	82.13955	1411.79428
328	13.33	363.0732	1405.33066	1366.31943	193.79343	1374.86298	1373.71796	373.06084	1488.16589	1271.39488	157.556	1442.84882	1306.64398	337.33646	1267.76779	1184.66614	210.30235	1261.90369	1188.88527	336.09856	1348.03345	1085.35751	190.38288	1341.58554	1096.92749	268.17846	1200.38712	982.24503	278.91281	1203.93784	1225.82275	281.66071	1099.88403	1256.29372	429.1449	1302.33627	1143.56613	493.07335	1081.51512	1091.42395	497.17216	978.31001	1108.93906	489.52339	901.45699	1081.24893	429.04606	748.66776	1143.81935	502.24861	748.76099	1144.31503	479.51801	687.798	1181.79749	123.64932	1296.39648	1162.47459	60.7911	1103.62694	1076.95717	39.11201	969.64569	1117.94113	36.1814	874.67102	1121.83556	108.34826	748.16673	1191.33873	34.17813	736.25938	1194.46106	50.78265	698.43445	1222.46422	401.87401	903.98415	1165.00938	136.45098	905.46013	1175.15884	344.74709	966.05186	995.93788	175.11801	978.03726	996.9545	388.04485	614.9408	1002.239	381.15456	460.1342	1041.61118	316.59195	263.66581	1026.11618	336.73889	130.09224	925.86929	277.56693	96.95814	857.65709	307.00083	46.26201	1030.90187	121.1139	610.53383	1096.76003	142.71655	486.64597	1249.52271	147.78015	317.49638	1282.67578	134.84941	115.39423	1281.81549	178.60943	50.38604	1232.59361	161.70588	76.0944	1413.69843
329	13.363	359.34841	1405.22339	1380.22202	190.25116	1373.7085	1388.62747	368.15754	1488.6525	1285.72556	153.18608	1441.91422	1322.24655	333.08884	1268.26561	1198.2518	206.06482	1261.9725	1203.17741	330.82592	1349.14124	1099.27361	185.29472	1342.061	1111.74278	262.91113	1201.84784	995.57785	275.02861	1203.9666	1239.33434	278.37015	1099.78477	1269.4622	424.45747	1303.29895	1156.74538	488.81886	1083.20572	1102.52098	493.65303	979.96307	1119.11575	486.40751	903.46138	1090.52834	427.7544	749.54124	1151.59744	501.03725	750.14839	1151.51283	479.24362	688.47427	1188.32146	119.20928	1296.35666	1177.64748	56.05801	1103.9743	1091.84715	34.85944	969.673	1132.59544	32.31565	874.63974	1136.45782	106.31612	748.41148	1204.54872	32.27701	736.13029	1208.96858	49.49664	698.28743	1236.64078	397.89856	904.00986	1176.20346	132.72431	906.13609	1187.68478	339.80984	967.06635	1007.89177	170.39721	979.91158	1009.84558	384.15565	615.95734	1011.87325	378.80676	461.07803	1050.02823	315.41246	264.32993	1031.30959	336.92345	132.96534	928.43597	278.09219	100.71224	859.49944	307.24344	46.17765	1031.68488	119.20468	611.9186	1104.96918	140.67257	485.35072	1256.32065	146.72684	316.75152	1287.98798	134.9869	114.5088	1285.55511	179.87272	51.1075	1235.46417	160.21439	72.0088	1417.04865
330	13.397	355.03506	1405.27298	1395.25024	186.21403	1372.62695	1404.23981	362.8159	1489.26697	1301.11282	148.33985	1440.93262	1338.48541	328.39699	1269.10637	1212.84615	201.45067	1262.2702	1218.27583	325.39566	1350.57343	1114.32335	180.06357	1342.89505	1127.4276	257.35924	1203.85445	1009.20563	270.84225	1204.53941	1253.8649	274.65446	1100.04059	1282.96707	419.48544	1304.97925	1170.94452	484.07497	1085.8812	1114.37752	489.78619	982.51373	1130.0386	482.73247	906.30798	1100.73868	425.88894	751.22963	1160.76408	498.93177	752.50946	1160.09987	477.95902	690.34203	1196.52084	114.55828	1296.83853	1193.52722	50.80357	1105.35858	1107.89413	30.0171	970.61531	1147.81647	27.93679	875.3862	1151.59447	103.51096	749.17046	1217.91397	29.73047	736.81366	1224.0493	47.71653	698.92151	1251.26266	393.29445	904.51004	1187.69646	128.23276	907.19818	1200.17998	334.98646	968.62068	1020.08362	165.60909	981.99677	1022.61169	380.31315	617.02236	1022.41867	376.17729	462.13291	1060.17548	314.24171	265.18719	1037.51839	336.77567	136.35832	931.6597	278.27559	105.45634	861.97205	307.88485	46.15312	1032.47688	116.10253	613.37971	1115.65323	138.62683	485.28011	1265.43922	145.5702	315.90731	1294.13315	135.08543	113.71471	1288.72345	180.41164	51.95034	1237.43683	160.89003	67.98995	1419.6228
331	13.43	350.2565	1405.0589	1410.76996	181.68362	1371.0585	1420.21881	356.98479	1489.62479	1317.10785	143.00934	1439.49432	1355.10056	323.46046	1269.92516	1227.79137	196.63729	1262.547	1233.59818	319.75611	1352.0787	1129.71535	174.50943	1343.7291	1143.53615	251.60414	1205.81985	1023.78517	266.27369	1204.94324	1268.46008	270.62357	1100.22156	1296.63818	414.29935	1306.68427	1185.81017	479.48242	1088.40012	1126.99013	485.79197	984.92973	1141.46584	478.57929	908.7236	1111.6787	424.40914	752.91458	1169.3528	495.83641	754.655	1170.03799	475.49347	692.38983	1206.42601	109.5962	1297.20474	1209.8584	44.98915	1106.32179	1124.05479	24.8752	971.21819	1163.14499	23.29799	875.76302	1166.72836	100.41805	750.0116	1232.43324	26.68521	737.22519	1239.06944	45.26691	699.46304	1266.08681	388.60054	905.39978	1199.31602	123.64198	908.25195	1213.58276	329.94759	970.11818	1032.51511	160.1659	983.6544	1036.02585	376.68991	618.43048	1033.07755	374.18465	463.37395	1070.61218	313.76377	266.3179	1044.15451	337.06924	140.2347	935.16144	278.68464	110.86481	864.80469	308.48301	46.14581	1033.5537	111.41401	614.78523	1126.13731	135.58375	484.6748	1274.25339	143.91454	315.04669	1300.70068	134.67215	112.89203	1292.33459	179.87774	52.65235	1239.49219	161.58741	64.11479	1422.21954
332	13.463	345.05844	1404.10065	1426.42654	176.71309	1368.78326	1436.1348	350.81638	1489.75754	1333.68179	137.34897	1437.62894	1371.7952	318.28699	1270.60463	1242.85446	191.50496	1262.7565	1248.8459	313.92534	1353.70392	1144.99115	168.79326	1344.58511	1159.43535	245.66368	1207.80312	1038.43773	261.55035	1205.06584	1282.90756	266.36259	1100.24971	1310.53528	408.64399	1308.13599	1200.64865	474.87141	1090.51682	1140.65407	481.44913	986.94496	1154.01894	474.3206	910.68832	1123.937	419.15859	755.05028	1183.19664	491.7379	756.49002	1181.92093	471.61808	694.12605	1218.31558	104.44613	1297.30225	1225.90591	38.93554	1106.68083	1140.06554	19.69085	971.29211	1178.67035	18.59094	875.78552	1182.05574	96.82499	750.27924	1246.86684	23.23146	737.11624	1254.09325	42.12733	699.45717	1281.091	384.24149	906.53702	1211.09222	119.42851	909.77859	1228.06381	324.10862	971.28868	1044.99512	154.21766	985.41191	1050.20935	372.55718	619.91135	1044.3795	372.58736	464.89437	1081.48422	313.9336	267.65074	1051.53008	337.79438	144.73687	939.0432	279.52093	116.94171	868.19695	309.47527	46.13694	1034.79958	106.7065	616.64146	1137.59384	132.34974	484.25079	1283.49167	141.65065	314.26477	1306.9101	133.96847	112.16166	1295.21576	179.52963	53.42727	1241.1763	160.52816	60.79302	1424.14703
333	13.497	339.39655	1402.70081	1442.37167	171.41258	1366.29105	1452.12463	344.40823	1489.82483	1350.88806	131.38287	1435.57358	1388.47839	313.08468	1272.10464	1257.27188	186.43604	1263.22273	1263.90259	307.92055	1355.42816	1159.65103	163.04337	1345.63934	1175.1783	239.68431	1209.8333	1053.09532	256.8177	1205.5809	1297.23999	262.27367	1100.64842	1324.46579	403.00358	1309.8497	1215.25078	469.94381	1092.64023	1154.82124	476.5897	989.04259	1167.87086	469.72839	912.66678	1137.60918	415.2932	756.72234	1194.86725	486.69018	758.48694	1195.82993	466.4098	696.21376	1232.09526	99.26538	1297.57965	1241.59004	33.30233	1106.88019	1155.75111	14.6942	971.48506	1194.78897	13.96014	876.02936	1197.87056	92.51513	750.52483	1261.93665	19.18432	737.30309	1269.64478	38.53858	699.25697	1296.22482	379.64931	907.70119	1223.15468	115.2238	911.62888	1242.85652	317.47385	972.60452	1057.78534	148.27451	987.57996	1064.75502	368.09841	621.16657	1056.98952	370.83603	466.42166	1094.29077	314.27706	269.25909	1060.13145	338.63552	149.91014	943.76762	280.31332	124.01562	872.51869	310.57621	46.05854	1036.35895	102.13181	618.66524	1148.9193	129.05381	484.13738	1292.63885	139.49861	313.50124	1313.17947	133.67057	111.61153	1297.83264	179.26437	54.24193	1242.45865	161.49118	58.00592	1425.92941
334	13.53	333.38398	1401.25534	1458.40302	165.61697	1363.7648	1467.33322	337.9937	1489.7963	1368.13171	125.23705	1433.76556	1404.65088	307.35052	1273.01735	1270.98328	181.27781	1263.96339	1278.80348	301.85247	1357.11151	1174.42947	157.32806	1346.75644	1190.77309	233.43767	1211.83006	1067.71851	252.10615	1206.76697	1311.80511	258.13675	1101.6481	1338.40347	397.49603	1311.75873	1229.23195	464.52747	1094.67636	1168.7587	471.21986	991.12381	1181.97166	464.36165	914.54018	1151.89835	409.3869	758.9238	1209.58984	480.69401	760.54474	1210.86929	460.03845	698.4771	1247.42264	93.91825	1298.25745	1257.15675	28.0093	1107.2319	1171.68503	10.26143	971.88568	1211.22581	9.41229	876.65726	1214.19861	87.73258	750.21492	1276.2944	14.9711	737.69608	1285.55435	34.40582	699.53354	1311.86996	374.7366	909.05045	1235.65636	110.53903	913.14034	1257.48474	310.93887	974.00246	1070.78575	142.10196	989.2717	1079.24133	364.45263	622.11224	1070.94872	369.27212	467.7174	1109.19762	314.61594	270.94263	1070.01991	339.57413	155.55696	949.47739	281.31947	131.96538	877.89742	311.71713	45.9188	1038.30002	97.95976	620.17345	1160.3392	126.67614	483.75557	1302.13211	138.39505	312.62064	1319.70123	133.85138	111.11067	1300.60883	179.24999	54.98562	1243.67271	163.73692	55.17726	1427.7092
